<svg xmlns="http://www.w3.org/2000/svg" width="1440" height="840" viewBox="0 0 1440 840" role="img" aria-labelledby="title desc">
  <title id="title">Yeelight Themes preview for Home Assistant</title>
  <desc id="desc">Six Yeelight Home Assistant theme palettes shown with dashboard cards, controls, and entity state colors.</desc>
  <defs>
    <linearGradient id="bg" x1="0" y1="0" x2="1" y2="1">
      <stop offset="0" stop-color="#f7f3ec"/>
      <stop offset="0.5" stop-color="#eef3f9"/>
      <stop offset="1" stop-color="#111318"/>
    </linearGradient>
    <filter id="shadow" x="-20%" y="-20%" width="140%" height="140%">
      <feDropShadow dx="0" dy="16" stdDeviation="18" flood-color="#12161f" flood-opacity="0.22"/>
    </filter>
    <style>
      .label{font:700 30px Inter,Arial,sans-serif;fill:#24272c}
      .sub{font:500 16px Inter,Arial,sans-serif;fill:#68707a}
      .theme-name{font:700 20px Inter,Arial,sans-serif}
      .theme-sub{font:500 12px Inter,Arial,sans-serif;opacity:.72}
      .metric{font:700 28px Inter,Arial,sans-serif}
      .small{font:600 12px Inter,Arial,sans-serif}
      .tiny{font:500 11px Inter,Arial,sans-serif}
    </style>
  </defs>

  <rect width="1440" height="840" fill="url(#bg)"/>
  <rect x="60" y="54" width="1320" height="732" rx="28" fill="#ffffff" opacity="0.78"/>
  <text x="104" y="118" class="label">Yeelight Themes</text>
  <text x="104" y="148" class="sub">A visual companion for Home Assistant dashboards, native controls, and Yeelight cards.</text>

  <g transform="translate(104 188)" filter="url(#shadow)">
    <rect width="376" height="500" rx="20" fill="#ffffff"/>
    <rect x="28" y="28" width="320" height="36" rx="10" fill="#fff0d6"/>
    <circle cx="48" cy="46" r="9" fill="#ffb84d"/>
    <rect x="68" y="38" width="142" height="16" rx="8" fill="#c76a00" opacity=".35"/>
    <rect x="28" y="92" width="150" height="158" rx="16" fill="#fff7ea" stroke="#e8ded1"/>
    <text x="48" y="128" class="small" fill="#68707a">Living room</text>
    <text x="48" y="164" class="metric" fill="#24272c">74%</text>
    <rect x="48" y="198" width="94" height="28" rx="14" fill="#ffb84d"/>
    <circle cx="127" cy="212" r="10" fill="#ffffff"/>
    <rect x="198" y="92" width="150" height="158" rx="16" fill="#f2f7ff" stroke="#d9e5f3"/>
    <text x="218" y="128" class="small" fill="#68707a">Media</text>
    <path d="M235 178l52-30v60z" fill="#1d8fff"/>
    <rect x="28" y="276" width="320" height="74" rx="16" fill="#ffffff" stroke="#e8ded1"/>
    <circle cx="66" cy="313" r="16" fill="#ffb84d"/>
    <rect x="96" y="299" width="150" height="12" rx="6" fill="#24272c" opacity=".22"/>
    <rect x="96" y="321" width="94" height="10" rx="5" fill="#68707a" opacity=".24"/>
    <rect x="278" y="296" width="44" height="34" rx="17" fill="#ffe2ae"/>
    <circle cx="305" cy="313" r="13" fill="#ffb84d"/>
    <rect x="28" y="374" width="320" height="72" rx="16" fill="#f7f3ec"/>
    <rect x="48" y="402" width="110" height="12" rx="6" fill="#ffb84d"/>
    <rect x="172" y="402" width="86" height="12" rx="6" fill="#1d8fff"/>
    <rect x="270" y="402" width="52" height="12" rx="6" fill="#26a269"/>
  </g>

  <g transform="translate(520 188)">
    <g>
      <rect width="252" height="146" rx="18" fill="#f7f3ec" stroke="#e8ded1"/>
      <text x="24" y="42" class="theme-name" fill="#24272c">Yeelight Light</text>
      <text x="24" y="68" class="theme-sub" fill="#68707a">Warm daylight</text>
      <circle cx="38" cy="108" r="16" fill="#ffb84d"/><circle cx="82" cy="108" r="16" fill="#1d8fff"/><circle cx="126" cy="108" r="16" fill="#26a269"/>
      <rect x="170" y="92" width="54" height="32" rx="16" fill="#ffe2ae"/><circle cx="205" cy="108" r="12" fill="#ffb84d"/>
    </g>
    <g transform="translate(280 0)">
      <rect width="252" height="146" rx="18" fill="#111318"/>
      <text x="24" y="42" class="theme-name" fill="#f7f2ea">Yeelight Dark</text>
      <text x="24" y="68" class="theme-sub" fill="#b7b0a6">Night dashboard</text>
      <circle cx="38" cy="108" r="16" fill="#ffc56d"/><circle cx="82" cy="108" r="16" fill="#4da3ff"/><circle cx="126" cy="108" r="16" fill="#3ddc97"/>
      <rect x="170" y="92" width="54" height="32" rx="16" fill="#513a1d"/><circle cx="205" cy="108" r="12" fill="#ffc56d"/>
    </g>
    <g transform="translate(560 0)">
      <rect width="252" height="146" rx="18" fill="#0f1115"/>
      <text x="24" y="42" class="theme-name" fill="#ffffff">Yeelight Panel</text>
      <text x="24" y="68" class="theme-sub" fill="#d7d0c5">Wall control</text>
      <circle cx="38" cy="108" r="16" fill="#ffb84d"/><circle cx="82" cy="108" r="16" fill="#4da3ff"/><circle cx="126" cy="108" r="16" fill="#ff6b6b"/>
      <rect x="170" y="92" width="54" height="32" rx="16" fill="#2e2618"/><circle cx="205" cy="108" r="12" fill="#ffc56d"/>
    </g>
    <g transform="translate(0 178)">
      <rect width="252" height="146" rx="18" fill="#f6f8fb" stroke="#dbe5f2"/>
      <text x="24" y="42" class="theme-name" fill="#1f2937">Classic Light</text>
      <text x="24" y="68" class="theme-sub" fill="#64748b">Blue native HA</text>
      <circle cx="38" cy="108" r="16" fill="#2b8cff"/><circle cx="82" cy="108" r="16" fill="#ffb84d"/><circle cx="126" cy="108" r="16" fill="#22c55e"/>
      <rect x="170" y="92" width="54" height="32" rx="16" fill="#dbeafe"/><circle cx="205" cy="108" r="12" fill="#2b8cff"/>
    </g>
    <g transform="translate(280 178)">
      <rect width="252" height="146" rx="18" fill="#111827"/>
      <text x="24" y="42" class="theme-name" fill="#f8fafc">Classic Dark</text>
      <text x="24" y="68" class="theme-sub" fill="#b6c2d2">Blue dark HA</text>
      <circle cx="38" cy="108" r="16" fill="#60a5fa"/><circle cx="82" cy="108" r="16" fill="#ffc56d"/><circle cx="126" cy="108" r="16" fill="#34d399"/>
      <rect x="170" y="92" width="54" height="32" rx="16" fill="#1e3a5f"/><circle cx="205" cy="108" r="12" fill="#60a5fa"/>
    </g>
    <g transform="translate(560 178)">
      <rect width="252" height="146" rx="18" fill="#edf0f2" stroke="#d8dee4"/>
      <rect x="126" width="126" height="146" rx="18" fill="#202329"/>
      <text x="24" y="42" class="theme-name" fill="#24272c">Minimal</text>
      <text x="24" y="68" class="theme-sub" fill="#68707a">Light and dark mode</text>
      <circle cx="38" cy="108" r="16" fill="#ffb84d"/><circle cx="82" cy="108" r="16" fill="#6b7280"/><circle cx="126" cy="108" r="16" fill="#1d8fff"/>
      <rect x="170" y="92" width="54" height="32" rx="16" fill="#30343d"/><circle cx="205" cy="108" r="12" fill="#ffc56d"/>
    </g>
    <g transform="translate(0 380)">
      <rect width="812" height="120" rx="18" fill="#ffffff" opacity=".92"/>
      <text x="28" y="42" class="theme-name" fill="#24272c">Native Home Assistant coverage</text>
      <text x="28" y="70" class="sub">Cards, dialogs, buttons, selects, inputs, switches, sliders, sidebar, and state colors share the same Yeelight visual language.</text>
      <rect x="28" y="92" width="120" height="10" rx="5" fill="#ffb84d"/>
      <rect x="164" y="92" width="120" height="10" rx="5" fill="#1d8fff"/>
      <rect x="300" y="92" width="120" height="10" rx="5" fill="#26a269"/>
      <rect x="436" y="92" width="120" height="10" rx="5" fill="#d78100"/>
      <rect x="572" y="92" width="120" height="10" rx="5" fill="#d64545"/>
    </g>
  </g>
</svg>
